<?xml version="1.0" encoding="UTF-8"?>
<svg width="115px" height="75px" viewBox="0 0 115 75" version="1.1" xmlns="http://www.w3.org/2000/svg" xmlns:xlink="http://www.w3.org/1999/xlink">
    <!-- Generator: Sketch 41.2 (35397) - http://www.bohemiancoding.com/sketch -->
    <title>desktop-mobile</title>
    <desc>Created with Sketch.</desc>
    <defs></defs>
    <g id="Symbols" stroke="none" stroke-width="1" fill="none" fill-rule="evenodd">
        <g id="desktop-mobile">
            <g>
                <path d="M57,71.0526316 L67,71.0526316 L67,74.0131579 L16,74.0131579 L16,71.0526316 L26,71.0526316 L25.9382974,64 L3.5,64 C1.60891998,64 0.0617026086,62.3963356 0.0617026086,60.4362633 L0.123405217,3.8427238 C0.123405217,1.88265158 1.67062259,0.278987136 3.56170261,0.278987136 L80.2494279,0.278987136 C81.7966453,0.278987136 83,1.52624381 83,3.12990825 L82.9382974,60.4362633 C82.9382974,62.3963356 81.39108,64 79.5,64 L56.9382974,64 L57,71.0526316 Z M112.947338,29 L91.0526617,29 C89.8553439,29 89,29.892771 89,31.1428897 L89,71.8571103 C89,73.1070581 89.8553439,74 91.0526617,74 L112.947338,74 C114.144656,74 115,73.107229 115,71.8571103 L115,31.1428897 C115,29.892771 114.144656,29 112.947338,29 Z" id="shape" fill="#A265D9"></path>
                <path d="M5,5 L77,5 L77,54 L5,54 L5,5 Z M91.0140803,33.0500772 L113,33 L113,70 L91.0140803,70.0500772 L91.0140803,33.0500772 Z" id="Combined-Shape" fill="#FFFFFF"></path>
                <path d="M36.9246214,22.1912425 C35.7719596,21.848616 27.0991513,19.7774046 24,33.9248097 C29.4734139,28.9301752 32.0998882,31.2697122 32.1815368,31.3449059 C31.8788914,32.1404332 31.5875405,32.9655085 31.3086936,33.8211381 L36.0902527,38.5652347 C36.9749103,38.330617 37.8258598,38.0728362 38.6442612,37.794065 C39.0839186,38.4392788 40.3010291,41.0259857 35.9202999,45.7517166 C49.9282668,42.7310061 48.160323,34.3733981 47.7662933,32.9956607 C58.2121142,24.9743285 58.8142614,12.8937199 57.4860942,11.5759585 C56.1250733,10.2256009 45.1714784,10.3528935 36.9246214,22.1912425 L36.9246214,22.1912425 Z M32.7969459,37.5322735 C33.9085571,38.6351754 34.4515429,43.9772228 24.4683198,46 C26.3336874,35.922969 31.6853347,36.4293715 32.7969459,37.5322735 Z" id="Combined-Shape" fill="#A265D8"></path>
                <path d="M101.082175,48.4357464 C100.539746,48.2693277 96.4584242,47.2633108 95,54.1349075 C97.5757242,51.7089422 98.8117121,52.8452888 98.8501349,52.8818114 C98.7077136,53.2682104 98.5706073,53.6689613 98.4393852,54.0845528 L100.689531,56.3888283 C101.10584,56.2748711 101.506287,56.1496633 101.891417,56.0142601 C102.098315,56.3276497 102.671073,57.5840502 100.609553,59.8794052 C107.201537,58.412203 106.369564,54.3527934 106.184138,53.6836066 C111.099818,49.787531 111.383182,43.9198068 110.758162,43.2797513 C110.117682,42.6238633 104.963049,42.6856911 101.082175,48.4357464 L101.082175,48.4357464 Z M99.1397392,55.8871043 C99.6628504,56.4227995 99.9183731,59.0175082 95.2203858,60 C96.0982059,55.1054421 98.6166281,55.351409 99.1397392,55.8871043 Z" id="Combined-Shape" fill="#A265D8"></path>
            </g>
        </g>
    </g>
</svg>