<?xml version="1.0" encoding="UTF-8"?>
<svg width="115px" height="75px" viewBox="0 0 115 75" version="1.1" xmlns="http://www.w3.org/2000/svg" xmlns:xlink="http://www.w3.org/1999/xlink">
    <!-- Generator: Sketch 41.2 (35397) - http://www.bohemiancoding.com/sketch -->
    <title>desktop-mobile</title>
    <desc>Created with Sketch.</desc>
    <defs></defs>
    <g id="Page-1" stroke="none" stroke-width="1" fill="none" fill-rule="evenodd">
        <g id="Home" transform="translate(-212.000000, -893.000000)">
            <g id="features" transform="translate(0.000000, 831.000000)">
                <g id="desktop-mobile" transform="translate(212.000000, 62.000000)">
                    <path d="M57,71.0526316 L67,71.0526316 L67,74.0131579 L16,74.0131579 L16,71.0526316 L26,71.0526316 L25.9382974,64 L3.5,64 C1.60891998,64 0.0617026086,62.3963356 0.0617026086,60.4362633 L0.123405217,3.8427238 C0.123405217,1.88265158 1.67062259,0.278987136 3.56170261,0.278987136 L80.2494279,0.278987136 C81.7966453,0.278987136 83,1.52624381 83,3.12990825 L82.9382974,60.4362633 C82.9382974,62.3963356 81.39108,64 79.5,64 L56.9382974,64 L57,71.0526316 Z M112.947338,29 L91.0526617,29 C89.8553439,29 89,29.892771 89,31.1428897 L89,71.8571103 C89,73.1070581 89.8553439,74 91.0526617,74 L112.947338,74 C114.144656,74 115,73.107229 115,71.8571103 L115,31.1428897 C115,29.892771 114.144656,29 112.947338,29 Z" id="shape" fill="#A265D9"></path>
                    <path d="M5,5 L77,5 L77,54 L5,54 L5,5 Z M91.0140803,33.0500772 L113,33 L113,70 L91.0140803,70.0500772 L91.0140803,33.0500772 Z" id="Combined-Shape" fill="#FFFFFF"></path>
                </g>
            </g>
        </g>
    </g>
</svg>