<?xml version="1.0" encoding="UTF-8"?>
<svg width="105px" height="59px" viewBox="0 0 105 59" version="1.1" xmlns="http://www.w3.org/2000/svg" xmlns:xlink="http://www.w3.org/1999/xlink">
    <!-- Generator: Sketch 41.2 (35397) - http://www.bohemiancoding.com/sketch -->
    <title>feather</title>
    <desc>Created with Sketch.</desc>
    <defs></defs>
    <g id="Symbols" stroke="none" stroke-width="1" fill="none" fill-rule="evenodd">
        <g id="feather" transform="translate(-5.000000, -23.000000)" fill="#FFFFFF">
            <path d="M58.5235022,72.2800496 C51.0890053,70.3459142 41.6255556,64.6476157 33.402763,54.6526588 C46.8491696,64.8418126 54.5339745,69.9090742 71.6781223,71.0895111 C63.5514283,69.3466865 50.8090781,65.783123 46.0105155,54.0748215 C41.8222198,43.8475292 42.3245289,34.3982496 40.3366439,27.9460465 C39.7093338,30.8571449 38.0232969,33.6703203 34.417342,35.8021573 C34.417342,35.8021573 36.0284303,34.3982496 37.2380813,31.2082249 C38.9210381,26.7707634 38.1327425,21.7709142 35.1715515,18.0716896 C32.2064591,14.3708157 27.5107712,12.519348 22.8321264,13.221508 C6.79496011,15.6438157 -0.423315044,45.7470188 23.0623112,68.3206588 C37.4678554,81.7190096 56.0105155,81.5748215 68.2713461,77.8286803 C79.5105155,77.8286803 98.4387211,74.2152753 108.010361,60.3390003 C104.500504,63.3329726 87.1364385,79.7232342 58.5235022,72.2800496 Z" transform="translate(58.011260, 46.543517) rotate(-16.000000) translate(-58.011260, -46.543517) "></path>
        </g>
    </g>
</svg>