<?xml version="1.0" encoding="UTF-8"?>
<svg width="105px" height="59px" viewBox="0 0 105 59" version="1.1" xmlns="http://www.w3.org/2000/svg" xmlns:xlink="http://www.w3.org/1999/xlink">
    <!-- Generator: Sketch 41.2 (35397) - http://www.bohemiancoding.com/sketch -->
    <title>feather</title>
    <desc>Created with Sketch.</desc>
    <defs></defs>
    <g id="Page-1" stroke="none" stroke-width="1" fill="none" fill-rule="evenodd">
        <g id="Home" transform="translate(-817.000000, -908.000000)" fill="#F5A623">
            <g id="features" transform="translate(0.000000, 831.000000)">
                <path d="M870.523502,126.28005 C863.089005,124.345914 853.625556,118.647616 845.402763,108.652659 C858.84917,118.841813 866.533974,123.909074 883.678122,125.089511 C875.551428,123.346686 862.809078,119.783123 858.010515,108.074821 C853.82222,97.8475292 854.324529,88.3982496 852.336644,81.9460465 C851.709334,84.8571449 850.023297,87.6703203 846.417342,89.8021573 C846.417342,89.8021573 848.02843,88.3982496 849.238081,85.2082249 C850.921038,80.7707634 850.132742,75.7709142 847.171551,72.0716896 C844.206459,68.3708157 839.510771,66.519348 834.832126,67.221508 C818.79496,69.6438157 811.576685,99.7470188 835.062311,122.320659 C849.467855,135.71901 868.010515,135.574821 880.271346,131.82868 C891.510515,131.82868 910.438721,128.215275 920.010361,114.339 C916.500504,117.332973 899.136439,133.723234 870.523502,126.28005 Z" id="feather" transform="translate(870.011260, 100.543517) rotate(-16.000000) translate(-870.011260, -100.543517) "></path>
            </g>
        </g>
    </g>
</svg>