<?xml version="1.0" encoding="UTF-8"?>
<svg width="54px" height="56px" viewBox="0 0 54 56" version="1.1" xmlns="http://www.w3.org/2000/svg" xmlns:xlink="http://www.w3.org/1999/xlink">
    <!-- Generator: Sketch 41.2 (35397) - http://www.bohemiancoding.com/sketch -->
    <title>logo</title>
    <desc>Created with Sketch.</desc>
    <defs></defs>
    <g id="Symbols" stroke="none" stroke-width="1" fill="none" fill-rule="evenodd">
        <g id="logo" transform="translate(-14.000000, -10.000000)">
            <g transform="translate(40.573036, 39.597980) rotate(-315.000000) translate(-40.573036, -39.597980) translate(23.073036, 1.097980)">
                <path d="M6.49874732,31.6885824 C6.49874732,31.6885824 -6.84295979,37.9561335 5.22187475,56.6866188 C5.67200271,45.9412864 10.8536749,45.8348803 10.8536749,45.8348803 L6.49874732,31.6885824 Z" id="Path-138" fill="#6FC6EA"></path>
                <path d="M29.9570267,31.6885824 C29.9570267,31.6885824 16.6153196,37.9561335 28.6801542,56.6866188 C29.1302821,45.9412864 34.3119544,45.8348803 34.3119544,45.8348803 L29.9570267,31.6885824 Z" id="Path-138" fill="#6FC6EA" transform="translate(28.971047, 44.187601) scale(-1, 1) translate(-28.971047, -44.187601) "></path>
                <g id="Path-136-+-Path-136-+-Path-136" transform="translate(10.402526, 49.751211)">
                    <path d="M6.68303019,0.278820226 C10.1131747,0.278820226 19.2581047,7.73269582 7.00081086,26.2424552 C-5.79149721,7.73269582 3.25288564,0.278820226 6.68303019,0.278820226 Z" id="Path-136" fill="#F6A623" opacity="0.600000024"></path>
                    <path d="M6.84165209,0.278820226 C8.86407876,0.278820226 14.2559653,4.6736545 7.02901682,15.5870812 C-0.513378169,4.6736545 4.81922541,0.278820226 6.84165209,0.278820226 Z" id="Path-136" fill="#F8E81C"></path>
                </g>
                <path d="M16.2743416,0.31256077 C19.7249856,0.31256077 38.0987813,21.656204 22.1294826,49.2254402 L12.4863532,49.2254402 C-3.54067984,17.9400483 12.8236975,0.31256077 16.2743416,0.31256077 Z" id="Path-137" fill="#84DBFF"></path>
            </g>
        </g>
    </g>
</svg>