<?xml version="1.0" encoding="UTF-8"?>
<svg width="449px" height="100px" viewBox="0 0 449 100" version="1.1" xmlns="http://www.w3.org/2000/svg" xmlns:xlink="http://www.w3.org/1999/xlink">
    <!-- Generator: Sketch 41.2 (35397) - http://www.bohemiancoding.com/sketch -->
    <title>logo-text</title>
    <desc>Created with Sketch.</desc>
    <defs></defs>
    <g id="Symbols" stroke="none" stroke-width="1" fill="none" fill-rule="evenodd">
        <g id="logo-with-text" transform="translate(-1.000000, -10.000000)">
            <g id="logo-text" transform="translate(1.000000, 10.000000)">
                <path d="M15.2464455,54.4 L36.5914691,54.4 C42.7239589,54.2986662 45.8748595,51.5120274 46.0442653,46.04 C45.8748595,41.0408639 42.7747799,38.440001 36.7439335,38.2373333 L15.2464455,38.2373333 L15.2464455,54.4 Z M45.8918008,66.864 L64.8990362,100 L47.4164454,100 L29.1715323,68.5866667 L15.2464455,68.5866667 L15.2464455,100 L0,100 L0,24 L33.2372511,24 C51.0248597,24 59.9185306,31.295927 59.9185306,45.888 C59.9185306,56.8658327 55.2430008,63.8577627 45.8918008,66.864 Z M79.8913742,89.0813333 C72.6069249,81.8021858 68.9647549,72.775165 68.9647549,62 C68.9647549,51.1910571 72.6069249,42.1555919 79.8913742,34.8933333 C87.1758234,27.6310748 96.2388976,24 107.080869,24 C117.92284,24 126.985914,27.6310748 134.270363,34.8933333 C141.554812,42.1555919 145.196982,51.1910571 145.196982,62 C145.196982,72.8089429 141.554812,81.8444081 134.270363,89.1066667 C126.985914,96.3689252 117.92284,100 107.080869,100 C96.2388976,100 87.1758234,96.3604808 79.8913742,89.0813333 Z M107.13169,85.8133333 C113.874041,85.8133333 119.362706,83.5333561 123.597851,78.9733333 C127.832996,74.4133105 129.950537,68.7555893 129.950537,62 C129.950537,55.2444107 127.832996,49.5866895 123.597851,45.0266667 C119.362706,40.4666439 113.84016,38.1866667 107.030047,38.1866667 C100.287696,38.1866667 94.7990309,40.4666439 90.563886,45.0266667 C86.3287411,49.5866895 84.2112004,55.2444107 84.2112004,62 C84.2112004,68.7555893 86.3287411,74.4133105 90.563886,78.9733333 C94.7990309,83.5333561 100.321577,85.8133333 107.13169,85.8133333 Z M163.721413,89.0813333 C156.420024,81.8359638 152.769383,72.7582768 152.769383,61.848 C152.803265,51.1741689 156.462375,42.1978142 163.746824,34.9186667 C171.031273,27.6395192 180.060467,24 190.834676,24 C201.710528,24 211.044647,27.377744 218.837314,34.1333333 L208.673017,45.2293333 C203.489199,41.1759797 197.543145,39.1493333 190.834676,39.1493333 C183.990681,39.1831113 178.476605,41.31109 174.292282,45.5333333 C170.107959,49.7555767 168.015829,55.1599671 168.015829,61.7466667 C168.04971,68.8062575 170.167251,74.4133126 174.368515,78.568 C178.569778,82.7226874 184.092324,84.8 190.936319,84.8 C197.780313,84.8 203.692486,82.7902423 208.673017,78.7706667 L218.837314,89.8666667 C211.078528,96.622256 201.744409,100 190.834676,100 C180.060467,99.9662221 171.022803,96.3267029 163.721413,89.0813333 Z M235.405118,24 L250.651563,24 L250.651563,59.4666667 L263.356935,59.4666667 L299.440189,100 L279.61981,100 L250.651563,67.168 L250.651563,100 L235.405118,100 L235.405118,24 Z M315.441138,100 L315.441138,24.0506667 L371.446414,24 L371.446414,38.1866667 L330.687583,38.1866667 L330.687583,54.4 L361.231296,54.4 L361.231296,68.536 L330.687583,68.536 L330.687583,85.8133333 L371.344771,85.8133333 L371.344771,100 L315.441138,100 Z M382.93207,24 L382.93207,38.1866667 L408.342812,38.1866667 L408.342812,100 L423.589258,100 L423.589258,38.1866667 L449,38.1866667 L449,24 L382.93207,24 Z" id="text" fill="#FFFFFF"></path>
                <g id="logo" transform="translate(262.000000, 0.000000)" fill="#84DBFF">
                    <g transform="translate(24.401463, 26.769553) rotate(-315.000000) translate(-24.401463, -26.769553) translate(6.901463, -7.730447)" id="Combined-Shape">
                        <path d="M6.32946304,31.7755314 C4.81893588,32.5880878 -6.03146769,39.2159635 5.22187475,56.6866188 C5.66488906,46.1111015 10.6910783,45.8409006 10.8498316,45.8350016 C11.3531718,46.9466068 11.8979317,48.0768185 12.4863532,49.2254402 L22.1294826,49.2254402 C22.783093,48.0970538 23.3791719,46.9790965 23.9210972,45.8726049 C25.0201828,46.0846201 28.8764227,47.4836422 29.2619405,56.6866188 C40.3170704,39.5236856 30.0402524,32.8249339 28.2426909,31.8239076 C30.6235929,13.1734418 18.9529007,0.31256077 16.2743416,0.31256077 C13.5295254,0.31256077 2.61365678,11.4662004 6.32946304,31.7755314 Z M17.758793,51.49221 C20.0006163,51.49221 25.9774248,56.3647993 17.9664834,68.4646059 C9.60587533,56.3647993 15.5169697,51.49221 17.758793,51.49221 Z"></path>
                    </g>
                </g>
            </g>
        </g>
    </g>
</svg>