<?xml version="1.0" encoding="UTF-8"?>
<svg width="449px" height="100px" viewBox="0 0 449 100" version="1.1" xmlns="http://www.w3.org/2000/svg" xmlns:xlink="http://www.w3.org/1999/xlink">
    <!-- Generator: Sketch 41.2 (35397) - http://www.bohemiancoding.com/sketch -->
    <title>logo-text</title>
    <desc>Created with Sketch.</desc>
    <defs></defs>
    <g id="Symbols" stroke="none" stroke-width="1" fill="none" fill-rule="evenodd">
        <g id="logo-with-text" transform="translate(-1.000000, -10.000000)">
            <g id="logo-text" transform="translate(1.000000, 0.000000)">
                <path d="M15.2464455,64.4 L36.5914691,64.4 C42.7239589,64.2986662 45.8748595,61.5120274 46.0442653,56.04 C45.8748595,51.0408639 42.7747799,48.440001 36.7439335,48.2373333 L15.2464455,48.2373333 L15.2464455,64.4 Z M45.8918008,76.864 L64.8990362,110 L47.4164454,110 L29.1715323,78.5866667 L15.2464455,78.5866667 L15.2464455,110 L0,110 L0,34 L33.2372511,34 C51.0248597,34 59.9185306,41.295927 59.9185306,55.888 C59.9185306,66.8658327 55.2430008,73.8577627 45.8918008,76.864 Z M79.8913742,99.0813333 C72.6069249,91.8021858 68.9647549,82.775165 68.9647549,72 C68.9647549,61.1910571 72.6069249,52.1555919 79.8913742,44.8933333 C87.1758234,37.6310748 96.2388976,34 107.080869,34 C117.92284,34 126.985914,37.6310748 134.270363,44.8933333 C141.554812,52.1555919 145.196982,61.1910571 145.196982,72 C145.196982,82.8089429 141.554812,91.8444081 134.270363,99.1066667 C126.985914,106.368925 117.92284,110 107.080869,110 C96.2388976,110 87.1758234,106.360481 79.8913742,99.0813333 Z M107.13169,95.8133333 C113.874041,95.8133333 119.362706,93.5333561 123.597851,88.9733333 C127.832996,84.4133105 129.950537,78.7555893 129.950537,72 C129.950537,65.2444107 127.832996,59.5866895 123.597851,55.0266667 C119.362706,50.4666439 113.84016,48.1866667 107.030047,48.1866667 C100.287696,48.1866667 94.7990309,50.4666439 90.563886,55.0266667 C86.3287411,59.5866895 84.2112004,65.2444107 84.2112004,72 C84.2112004,78.7555893 86.3287411,84.4133105 90.563886,88.9733333 C94.7990309,93.5333561 100.321577,95.8133333 107.13169,95.8133333 Z M163.721413,99.0813333 C156.420024,91.8359638 152.769383,82.7582768 152.769383,71.848 C152.803265,61.1741689 156.462375,52.1978142 163.746824,44.9186667 C171.031273,37.6395192 180.060467,34 190.834676,34 C201.710528,34 211.044647,37.377744 218.837314,44.1333333 L208.673017,55.2293333 C203.489199,51.1759797 197.543145,49.1493333 190.834676,49.1493333 C183.990681,49.1831113 178.476605,51.31109 174.292282,55.5333333 C170.107959,59.7555767 168.015829,65.1599671 168.015829,71.7466667 C168.04971,78.8062575 170.167251,84.4133126 174.368515,88.568 C178.569778,92.7226874 184.092324,94.8 190.936319,94.8 C197.780313,94.8 203.692486,92.7902423 208.673017,88.7706667 L218.837314,99.8666667 C211.078528,106.622256 201.744409,110 190.834676,110 C180.060467,109.966222 171.022803,106.326703 163.721413,99.0813333 Z M235.405118,34 L250.651563,34 L250.651563,69.4666667 L263.356935,69.4666667 L299.440189,110 L279.61981,110 L250.651563,77.168 L250.651563,110 L235.405118,110 L235.405118,34 Z M315.441138,110 L315.441138,34.0506667 L371.446414,34 L371.446414,48.1866667 L330.687583,48.1866667 L330.687583,64.4 L361.231296,64.4 L361.231296,78.536 L330.687583,78.536 L330.687583,95.8133333 L371.344771,95.8133333 L371.344771,110 L315.441138,110 Z M382.93207,34 L382.93207,48.1866667 L408.342812,48.1866667 L408.342812,110 L423.589258,110 L423.589258,48.1866667 L449,48.1866667 L449,34 L382.93207,34 Z" id="text" fill="#FFFFFF"></path>
                <g id="logo" transform="translate(243.000000, 0.000000)">
                    <g transform="translate(40.573036, 39.597980) rotate(-315.000000) translate(-40.573036, -39.597980) translate(23.073036, 1.097980)">
                        <path d="M6.49874732,31.6885824 C6.49874732,31.6885824 -6.84295979,37.9561335 5.22187475,56.6866188 C5.67200271,45.9412864 10.8536749,45.8348803 10.8536749,45.8348803 L6.49874732,31.6885824 Z" id="Path-138" fill="#6FC6EA"></path>
                        <path d="M29.9570267,31.6885824 C29.9570267,31.6885824 16.6153196,37.9561335 28.6801542,56.6866188 C29.1302821,45.9412864 34.3119544,45.8348803 34.3119544,45.8348803 L29.9570267,31.6885824 Z" id="Path-138" fill="#6FC6EA" transform="translate(28.971047, 44.187601) scale(-1, 1) translate(-28.971047, -44.187601) "></path>
                        <g id="Path-136-+-Path-136-+-Path-136" transform="translate(10.402526, 49.751211)">
                            <path d="M6.68303019,0.278820226 C10.1131747,0.278820226 19.2581047,7.73269582 7.00081086,26.2424552 C-5.79149721,7.73269582 3.25288564,0.278820226 6.68303019,0.278820226 Z" id="Path-136" fill="#F6A623" opacity="0.600000024"></path>
                            <path d="M6.84165209,0.278820226 C8.86407876,0.278820226 14.2559653,4.6736545 7.02901682,15.5870812 C-0.513378169,4.6736545 4.81922541,0.278820226 6.84165209,0.278820226 Z" id="Path-136" fill="#F8E81C"></path>
                        </g>
                        <path d="M16.2743416,0.31256077 C19.7249856,0.31256077 38.0987813,21.656204 22.1294826,49.2254402 L12.4863532,49.2254402 C-3.54067984,17.9400483 12.8236975,0.31256077 16.2743416,0.31256077 Z" id="Path-137" fill="#84DBFF"></path>
                    </g>
                </g>
            </g>
        </g>
    </g>
</svg>