<?xml version="1.0" encoding="UTF-8"?>
<svg width="49px" height="52px" viewBox="0 0 49 52" version="1.1" xmlns="http://www.w3.org/2000/svg" xmlns:xlink="http://www.w3.org/1999/xlink">
    <!-- Generator: Sketch 41.2 (35397) - http://www.bohemiancoding.com/sketch -->
    <title>logo</title>
    <desc>Created with Sketch.</desc>
    <defs></defs>
    <g id="Symbols" stroke="none" stroke-width="1" fill="none" fill-rule="evenodd">
        <g id="logo" transform="translate(-19.000000, -10.000000)">
            <g transform="translate(43.401463, 36.769553) rotate(-315.000000) translate(-43.401463, -36.769553) translate(25.901463, 2.269553)">
                <path d="M17.758793,51.49221 C20.0006163,51.49221 25.9774248,56.3647993 17.9664834,68.4646059 C9.60587533,56.3647993 15.5169697,51.49221 17.758793,51.49221 Z" id="Path-136" fill="#F6C123"></path>
                <path d="M6.32946304,31.7755314 C4.81893588,32.5880878 -6.03146769,39.2159635 5.22187475,56.6866188 C5.66488906,46.1111015 10.6910783,45.8409006 10.8498316,45.8350016 C11.3531718,46.9466068 11.8979317,48.0768185 12.4863532,49.2254402 L22.1294826,49.2254402 C22.783093,48.0970538 23.3791719,46.9790965 23.9210972,45.8726049 C25.0201828,46.0846201 28.8764227,47.4836422 29.2619405,56.6866188 C40.3170704,39.5236856 30.0402524,32.8249339 28.2426909,31.8239076 C30.6235929,13.1734418 18.9529007,0.31256077 16.2743416,0.31256077 C13.5295254,0.31256077 2.61365678,11.4662004 6.32946304,31.7755314 L6.32946304,31.7755314 Z" id="Combined-Shape" fill="#84DBFF"></path>
            </g>
        </g>
    </g>
</svg>