<?xml version="1.0" encoding="UTF-8"?>
<svg width="81px" height="81px" viewBox="0 0 81 81" version="1.1" xmlns="http://www.w3.org/2000/svg" xmlns:xlink="http://www.w3.org/1999/xlink">
    <!-- Generator: Sketch 41.2 (35397) - http://www.bohemiancoding.com/sketch -->
    <title>tools</title>
    <desc>Created with Sketch.</desc>
    <defs></defs>
    <g id="Page-1" stroke="none" stroke-width="1" fill="none" fill-rule="evenodd">
        <g id="Home" transform="translate(-530.000000, -890.000000)" fill="#6AC7ED">
            <g id="features" transform="translate(0.000000, 831.000000)">
                <path d="M588.434219,105.53 C588.737188,105.226719 589.22875,105.226719 589.531719,105.529844 L591.196563,110.729844 L609.944687,129.48 C611.241406,130.776719 610.241406,133.879687 608.944687,135.176406 L605.26125,138.861875 C603.964531,140.158594 601.859531,140.158594 600.562812,138.861875 L581.814671,120.111725 L576.614531,118.449219 C576.31125,118.14625 576.311094,117.654844 576.614063,117.351719 L580.5925,113.371406 L571.229219,104.0075 L560.042656,115.192031 C556.818437,118.41625 555.147812,122.922656 555.655312,127.454063 C556.020781,130.736719 554.847188,134.155156 552.1325,136.544063 C550.616406,137.874219 548.797656,138.692813 546.909844,138.999844 L548.872813,132.707969 C549.637031,130.254375 548.269375,127.646094 545.817812,126.881875 C543.364219,126.115625 540.755937,127.483281 539.991719,129.937031 L538.00375,136.302031 C533.651875,132.2175 533.568281,125.376406 537.757344,121.1875 C538.978906,119.965938 540.424062,119.109688 541.960938,118.614844 C544.295625,117.863125 546.427656,116.591406 548.160937,114.858125 L565.121193,97.8996306 L539.5,72.5 L537.019844,74.1834375 L530.082813,63.1221875 L534.207031,59 L545.268281,65.9370312 L544,69 L568.982188,94.03625 L580.16875,82.8496875 C583.392969,79.6254688 585.061406,75.1190625 584.556094,70.5876563 C584.188594,67.3070313 585.364219,63.8865625 588.078906,61.4996875 C589.592813,60.1673438 591.411719,59.34875 593.301563,59.041875 C593.301563,59.041875 591.125625,66.265 591.125625,66.7245313 C591.125625,68.7042188 592.401563,70.5396875 594.39375,71.1620313 C596.845312,71.92625 599.455625,70.5585938 600.219844,68.1070313 L602.205938,61.7396875 C606.557812,65.8242188 606.641406,72.6673438 602.452344,76.8564063 C601.232813,78.0759375 599.785625,78.9320313 598.24875,79.4270313 C595.91625,80.17875 593.784063,81.4504688 592.050938,83.1857813 L575.090414,100.144476 L584.456016,109.510078 L588.434219,105.53 Z" id="tools"></path>
            </g>
        </g>
    </g>
</svg>