<?xml version="1.0" encoding="UTF-8"?>
<svg width="81px" height="81px" viewBox="0 0 81 81" version="1.1" xmlns="http://www.w3.org/2000/svg" xmlns:xlink="http://www.w3.org/1999/xlink">
    <!-- Generator: Sketch 41.2 (35397) - http://www.bohemiancoding.com/sketch -->
    <title>tools</title>
    <desc>Created with Sketch.</desc>
    <defs></defs>
    <g id="Symbols" stroke="none" stroke-width="1" fill="none" fill-rule="evenodd">
        <g id="tools" fill="#5ACAF8">
            <path d="M58.4342188,46.53 C58.7371875,46.2267188 59.22875,46.2267188 59.5317188,46.5298438 L61.1965625,51.7298437 L79.9446875,70.48 C81.2414062,71.7767188 80.2414062,74.8796875 78.9446875,76.1764062 L75.26125,79.861875 C73.9645312,81.1585938 71.8595312,81.1585938 70.5628125,79.861875 L51.8146712,61.1117249 L46.6145313,59.4492188 C46.31125,59.14625 46.3110938,58.6548438 46.6140625,58.3517188 L50.5925,54.3714063 L41.2292188,45.0075 L30.0426562,56.1920313 C26.8184375,59.41625 25.1478125,63.9226563 25.6553125,68.4540625 C26.0207812,71.7367188 24.8471875,75.1551563 22.1325,77.5440625 C20.6164062,78.8742188 18.7976562,79.6928125 16.9098437,79.9998438 L18.8728125,73.7079688 C19.6370312,71.254375 18.269375,68.6460938 15.8178125,67.881875 C13.3642187,67.115625 10.7559375,68.4832813 9.99171875,70.9370313 L8.00375,77.3020313 C3.651875,73.2175 3.56828125,66.3764063 7.75734375,62.1875 C8.97890625,60.9659375 10.4240625,60.1096875 11.9609375,59.6148438 C14.295625,58.863125 16.4276562,57.5914063 18.1609375,55.858125 L35.1211931,38.8996306 L9.5,13.5 L7.01984375,15.1834375 L0.0828125,4.1221875 L4.20703125,0 L15.2682813,6.93703125 L14,10 L38.9821875,35.03625 L50.16875,23.8496875 C53.3929688,20.6254688 55.0614063,16.1190625 54.5560938,11.5876563 C54.1885938,8.30703125 55.3642188,4.8865625 58.0789063,2.4996875 C59.5928125,1.16734375 61.4117188,0.34875 63.3015625,0.041875 C63.3015625,0.041875 61.125625,7.265 61.125625,7.72453125 C61.125625,9.70421875 62.4015625,11.5396875 64.39375,12.1620313 C66.8453125,12.92625 69.455625,11.5585938 70.2198438,9.10703125 L72.2059375,2.7396875 C76.5578125,6.82421875 76.6414063,13.6673438 72.4523438,17.8564063 C71.2328125,19.0759375 69.785625,19.9320313 68.24875,20.4270313 C65.91625,21.17875 63.7840625,22.4504688 62.0509375,24.1857813 L45.0904136,41.1444761 L54.4560156,50.5100781 L58.4342188,46.53 Z"></path>
        </g>
    </g>
</svg>