<?xml version="1.0" encoding="UTF-8"?>
<svg width="82px" height="100px" viewBox="0 0 82 100" version="1.1" xmlns="http://www.w3.org/2000/svg" xmlns:xlink="http://www.w3.org/1999/xlink">
    <!-- Generator: Sketch 41.2 (35397) - http://www.bohemiancoding.com/sketch -->
    <title>wheel-chair</title>
    <desc>Created with Sketch.</desc>
    <defs></defs>
    <g id="Symbols" stroke="none" stroke-width="1" fill="none" fill-rule="evenodd">
        <g id="wheel-chair" transform="translate(3.000000, 0.000000)" fill="#FFFFFF">
            <g transform="translate(-3.000000, 0.000000)">
                <path d="M39.1775742,34.2741333 L38.4851131,24.0603313 C38.2422908,20.4787023 35.1419604,17.7720646 31.5603313,18.0148869 C27.9787023,18.2577092 25.2720646,21.3580396 25.5148869,24.9396687 L27.5148869,54.4396687 C27.7491955,57.8957205 30.6526198,60.5608109 34.1160529,60.4989639 L62.1160529,59.9989639 C62.4047141,59.9938092 62.6886437,59.9699135 62.9667024,59.9284576 L73.0623468,78.1782762 C74.2653756,80.352982 77.0035704,81.1406819 79.1782762,79.9376532 C81.352982,78.7346244 82.1406819,75.9964296 80.9376532,73.8217238 L67.9376532,50.3217238 C67.5405635,49.6039078 66.9762183,49.0372055 66.3200883,48.6433274 C65.1428912,47.5956639 63.5838054,46.9706815 61.8839471,47.0010361 L40.0668281,47.3906275 L39.6511192,41.2589223 L56.1674155,40.3933399 C58.097763,40.2921746 59.5806082,38.6453082 59.479443,36.7149607 C59.3782778,34.7846131 57.7314113,33.3017679 55.8010638,33.4029331 L39.1775742,34.2741333 Z M15.7336197,37.9059676 C6.30533445,44.0547907 0.5,54.5272123 0.5,65.9841155 C0.5,84.4954389 15.5316783,99.5 34.0719383,99.5 C47.0262712,99.5 58.6524417,92.1075091 64.2449447,80.6950522 C64.852514,79.4552034 64.3399502,77.9575752 63.1001014,77.350006 C61.8602527,76.7424368 60.3626245,77.2550006 59.7550553,78.4948493 C54.9948844,88.2087904 45.1006991,94.5 34.0719383,94.5 C18.291083,94.5 5.5,81.7319921 5.5,65.9841155 C5.5,56.2355066 10.436917,47.32965 18.4649404,42.0940324 C19.6214425,41.3397991 19.9475458,39.7908418 19.1933125,38.6343397 C18.4390791,37.4778375 16.8901219,37.1517342 15.7336197,37.9059676 Z" id="Combined-Shape"></path>
                <circle id="Oval-3" cx="31.5" cy="7.5" r="7.5"></circle>
            </g>
        </g>
    </g>
</svg>