<svg xmlns="http://www.w3.org/2000/svg"><symbol id="desktop-mobile" viewBox="0 0 115 75"><title>desktop-mobile</title><g fill="none" fill-rule="evenodd"><path d="M57 71.053h10v2.96H16v-2.96h10L25.938 64H3.5C1.609 64 .062 62.396.062 60.436L.123 3.843c0-1.96 1.548-3.564 3.439-3.564h76.687C81.797.279 83 1.526 83 3.129l-.062 57.307c0 1.96-1.547 3.564-3.438 3.564H56.938L57 71.053zM112.947 29H91.053C89.855 29 89 29.893 89 31.143v40.714c0 1.25.855 2.143 2.053 2.143h21.894c1.198 0 2.053-.893 2.053-2.143V31.143c0-1.25-.855-2.143-2.053-2.143z" fill="#A265D9"/><path d="M5 5h72v49H5V5zm86.014 28.05L113 33v37l-21.986.05v-37z" fill="#FFF"/></g></symbol><symbol id="feather" viewBox="0 0 105 59"><title>feather</title><path d="M60.598 48.142c-7.68.19-18.348-2.68-29.007-10.02 15.734 6.088 24.518 8.84 41.323 5.25-8.292.564-21.523.651-29.363-9.281-6.845-8.677-8.966-17.898-12.656-23.553.2 2.972-.646 6.14-3.524 9.184 0 0 1.161-1.794 1.445-5.194A13.417 13.417 0 0 0 23.208 2.47 13.288 13.288 0 0 0 10.01 1.21C-4.738 7.958-3.38 38.885 25.42 54.11c17.54 8.909 35.325 3.66 46.078-3.321C82.301 47.69 99.5 39 104.876 23.023c-2.549 3.845-14.722 24.387-44.278 25.119z" fill="#F5A623" fill-rule="evenodd"/></symbol><symbol id="logo-text" viewBox="0 0 449 100"><title>logo-text</title><g fill="none" fill-rule="evenodd"><path d="M15.246 54.4h21.345c6.133-.101 9.284-2.888 9.453-8.36-.17-5-3.27-7.6-9.3-7.803H15.246V54.4zm30.646 12.464L64.899 100H47.416L29.172 68.587H15.246V100H0V24h33.237c17.788 0 26.682 7.296 26.682 21.888 0 10.978-4.676 17.97-14.027 20.976zm34 22.217C72.606 81.802 68.964 72.775 68.964 62c0-10.809 3.642-19.844 10.926-27.107C87.176 27.631 96.24 24 107.081 24c10.842 0 19.905 3.631 27.19 10.893 7.284 7.263 10.926 16.298 10.926 27.107 0 10.809-3.642 19.844-10.927 27.107C126.986 96.369 117.923 100 107.08 100c-10.841 0-19.904-3.64-27.189-10.919zm27.24-3.268c6.742 0 12.23-2.28 16.466-6.84 4.235-4.56 6.353-10.217 6.353-16.973 0-6.756-2.118-12.413-6.353-16.973-4.235-4.56-9.758-6.84-16.568-6.84-6.742 0-12.231 2.28-16.466 6.84C86.329 49.587 84.21 55.244 84.21 62c0 6.756 2.118 12.413 6.353 16.973 4.235 4.56 9.758 6.84 16.568 6.84zm56.59 3.268c-7.302-7.245-10.953-16.323-10.953-27.233.034-10.674 3.693-19.65 10.978-26.93C171.03 27.64 180.06 24 190.835 24c10.876 0 20.21 3.378 28.002 10.133L208.673 45.23c-5.184-4.053-11.13-6.08-17.838-6.08-6.844.034-12.358 2.162-16.543 6.384-4.184 4.223-6.276 9.627-6.276 16.214.034 7.06 2.151 12.666 6.353 16.821 4.2 4.155 9.723 6.232 16.567 6.232 6.844 0 12.756-2.01 17.737-6.03l10.164 11.097C211.08 96.622 201.744 100 190.835 100c-10.775-.034-19.812-3.673-27.114-10.919zM235.404 24h15.247v35.467h12.705L299.44 100h-19.82l-28.968-32.832V100h-15.247V24zm80.036 76V24.05l56.005-.05v14.187h-40.758V54.4h30.543v14.136h-30.543v17.277h40.657V100H315.44zm67.491-76v14.187h25.41V100h15.247V38.187H449V24h-66.068z" fill="#FFF"/><path d="M280.61 17.003S266.745 12 262.031 33.776c7.917-7.28 11.656-3.691 11.656-3.691l6.923-13.082zM295.803 32.196s5.003 13.865-16.773 18.579c7.28-7.917 3.691-11.656 3.691-11.656l13.082-6.923z" fill="#6FC6EA"/><path d="M275.127 37.458c2.425 2.425 3.621 14.162-18.134 18.584 4.043-22.134 15.709-21.01 18.134-18.584z" fill="#F6A623" opacity=".6"/><path d="M275.24 37.57c1.43 1.43 2.134 8.35-10.693 10.957 2.384-13.05 9.262-12.387 10.692-10.957z" fill="#F8E81C"/><path d="M309.709 1.729c2.44 2.44.34 30.524-30.446 38.727l-6.82-6.82C283.234.183 307.27-.71 309.71 1.73z" fill="#84DBFF"/></g></symbol><symbol id="logo" viewBox="0 0 54 56"><title>logo</title><g fill="none" fill-rule="evenodd"><path d="M23.61 17.003S9.745 12 5.031 33.776c7.917-7.28 11.656-3.691 11.656-3.691l6.923-13.082zM38.803 32.196S43.806 46.06 22.03 50.775c7.28-7.917 3.691-11.656 3.691-11.656l13.082-6.923z" fill="#6FC6EA"/><path d="M18.127 37.458c2.425 2.425 3.621 14.162-18.134 18.584 4.043-22.134 15.709-21.01 18.134-18.584z" fill="#F6A623" opacity=".6"/><path d="M18.24 37.57c1.43 1.43 2.134 8.35-10.693 10.957C9.931 35.477 16.81 36.14 18.24 37.57z" fill="#F8E81C"/><path d="M52.709 1.729c2.44 2.44.34 30.524-30.446 38.727l-6.82-6.82C26.234.183 50.27-.71 52.71 1.73z" fill="#84DBFF"/></g></symbol><symbol id="rightarrow" viewBox="0 0 16 28"><title>rightarrow</title><path d="M1 0l14 14L1 28" stroke="#FFF" fill="none" fill-rule="evenodd"/></symbol><symbol id="tools" viewBox="0 0 81 81"><title>tools</title><path d="M58.434 46.53a.776.776 0 0 1 1.098 0l1.665 5.2 18.748 18.75c1.296 1.297.296 4.4-1 5.696l-3.684 3.686a3.324 3.324 0 0 1-4.698 0l-18.748-18.75-5.2-1.663a.776.776 0 0 1 0-1.097l3.977-3.98-9.363-9.365-11.186 11.185c-3.225 3.224-4.895 7.73-4.388 12.262a10.51 10.51 0 0 1-3.522 9.09A10.443 10.443 0 0 1 16.91 80l1.963-6.292a4.652 4.652 0 0 0-8.881-2.771l-1.988 6.365c-4.352-4.085-4.436-10.926-.247-15.115a10.465 10.465 0 0 1 4.204-2.572c2.335-.752 4.467-2.024 6.2-3.757L35.12 38.9 9.5 13.5l-2.48 1.683L.083 4.123 4.207 0l11.061 6.937L14 10l24.982 25.036L50.17 23.85c3.224-3.225 4.892-7.73 4.387-12.262A10.501 10.501 0 0 1 58.08 2.5 10.41 10.41 0 0 1 63.302.042s-2.176 7.223-2.176 7.683a4.654 4.654 0 0 0 9.094 1.382l1.986-6.367c4.352 4.084 4.435 10.927.246 15.116a10.47 10.47 0 0 1-4.203 2.571c-2.333.752-4.465 2.023-6.198 3.759L45.09 41.144l9.365 9.366 3.978-3.98z" fill="#6AC7ED" fill-rule="evenodd"/></symbol><symbol id="wheel-chair" viewBox="0 0 82 100"><title>wheel-chair</title><g transform="translate(3)" fill="none" fill-rule="evenodd"><path stroke="#7ED321" stroke-width="13" stroke-linecap="round" stroke-linejoin="round" d="M29 24.5L31 54l28-.5"/><path d="M61 52.5L74 76" stroke="#7ED321" stroke-width="9" stroke-linecap="round" stroke-linejoin="round"/><path d="M14.1 40C5.61 45.537 0 55.106 0 65.984 0 83.114 13.911 97 31.072 97 43.342 97 53.949 89.902 59 79.595" stroke="#7ED321" stroke-width="5" stroke-linecap="round" stroke-linejoin="round"/><path d="M30.016 38.102l22.968-1.204" stroke="#7ED321" stroke-width="7" stroke-linecap="round"/><circle fill="#7ED321" cx="27.5" cy="7.5" r="7.5"/></g></symbol></svg>